<?xml version="1.0" encoding="UTF-8"?>
<svg id="_レイヤー_1" data-name="レイヤー 1" xmlns="http://www.w3.org/2000/svg" viewBox="0 0 302.31 45.65">
  <defs>
    <style>
      .cls-1 {
        fill: #95d469;
      }
    </style>
  </defs>
  <path class="cls-1" d="m15.13,37.05v-3.43h1.72c.92,0,1.24-.36,1.24-.92,0-.28-.08-.64-.2-1l-.6-1.68h-9.1l-.64,1.48c-.12.32-.2.6-.2.84,0,.84.72,1.28,1.76,1.28h1.72v3.43H0v-3.43h.88c1.24,0,1.52-.76,1.92-1.76l7.78-20.48h7.27l7.23,20c.4,1.08.8,2.24,2.16,2.24h1.04v3.43h-13.13Zm-2.16-19.6l-3.47,9.3h6.67l-3.19-9.3Z"/>
  <path class="cls-1" d="m46.43,38.37c-7.02.5-15.66-.64-16.31-1.43s-1.07-4.16,0-4.33c.26-.04.74,0,.74,0,2.39,0,5.18-1.07,5.18-3.92V11.29c0-1.73-3.07-2.8-4.49-3.51,0,0-1.74-.55-2.09-1.02-.38-.51-.36-2.02,0-2.55,2.19-3.19,15.4-3.13,18.66-3.03,6.21.19,11.76,1.75,11.76,10.1,0,3.87-6.63,8.26-10.09,8.71,5.04.61,13.62,3.41,13.62,9.16,0,6.92-11.9,8.86-16.98,9.22Zm.03-29.84h-.61c-2.14,0-2.55,1.73-2.55,3.46v6.41h2.55c2.8,0,5.75-1.63,5.75-4.89,0-2.95-2.14-4.99-5.14-4.99Zm.51,13.85h-3.67v6.52c0,1.78.2,3.72,2.49,3.72h1.63c2.9,0,5.5-1.22,5.5-4.48,0-3.51-2.49-5.75-5.96-5.75Z"/>
  <path class="cls-1" d="m105.82,38.65c-7.02.5-15.66-.64-16.31-1.43s-1.07-4.16,0-4.33c.26-.04.74,0,.74,0,2.39,0,5.18-1.07,5.18-3.92V11.56c0-1.73-3.07-2.8-4.49-3.51,0,0-1.74-.55-2.09-1.02-.38-.51-.36-2.02,0-2.55,2.19-3.19,15.4-3.13,18.66-3.03,6.21.19,11.76,1.75,11.76,10.1,0,3.87-6.63,8.26-10.09,8.71,5.04.61,13.62,3.41,13.62,9.16,0,6.92-11.9,8.86-16.98,9.22Zm.03-29.84h-.61c-2.14,0-2.55,1.73-2.55,3.46v6.41h2.55c2.8,0,5.75-1.63,5.75-4.89,0-2.95-2.14-4.99-5.14-4.99Zm.51,13.85h-3.67v6.52c0,1.78.2,3.72,2.49,3.72h1.63c2.9,0,5.5-1.22,5.5-4.48,0-3.51-2.49-5.75-5.96-5.75Z"/>
  <path class="cls-1" d="m78.08,38.56c-8.61,0-13.77-5.53-13.77-13.86,0-7.3,5.66-13.32,13.04-13.32,2.01,0,3.61.49,5.33,1.15.49.2.98.45,1.52.45.66,0,1.31-.61,1.31-1.27,0-.12,0-.2-.04-.33h3.07v10.21h-2.54c-.62-3.89-3.53-6.64-7.5-6.64-4.96,0-6.19,5.37-6.19,9.35,0,5.25,1.52,10.37,7.34,10.37,3.07,0,5.98-2.5,7.26-6.56l2.3.61c-1.19,5.66-5.12,9.84-11.11,9.84Z"/>
  <path class="cls-1" d="m142.78,38.94c-1.73,0-3.08-.89-3.88-1.98-.17-.25-.46-.42-.8-.42s-.59.17-.8.38c-1.14,1.35-2.74,2.03-5.02,2.03-5.23,0-8.06-4.05-8.06-9.45,0-4.9,3.76-8.53,8.44-8.53,2.03,0,4.01.63,5.19,2.19l.38-1.77h6.08v11.35c0,.97.17,2.53,1.35,2.53,1.73,0,2.53-2.19,2.95-3.63l.46.08c-.3,3.84-1.65,7.22-6.29,7.22Zm-4.85-9.45c0-2.24-1.1-5.91-3.88-5.91s-3,3.29-3,5.28c0,2.24.51,6.58,3.55,6.58,2.32,0,3.33-2.41,3.33-4.47v-1.48Z"/>
  <path class="cls-1" d="m162.11,38.94c-2.36,0-4.52-.59-6.16-2.24-.13-.17-.34-.25-.55-.25-.34,0-.68.25-.76.55l-.34,1.52h-3.84v-21.78c0-1.44-.25-2.32-1.52-2.83l-2.15-.84v-1.69h10.21v12.2c1.18-1.69,2.91-2.62,5.49-2.62,5.23,0,8.06,4.05,8.06,9.45,0,4.9-3.76,8.53-8.44,8.53Zm-2.03-14.48c-2.53,0-3.25,2.83-3.25,4.52v1.48c0,1.98,1.01,5.87,3.97,5.87,2.57,0,2.91-3.17,2.91-5.06,0-2.32-.51-6.8-3.63-6.8Z"/>
  <path class="cls-1" d="m190.57,24.34c-1.6,0-1.94,1.01-2.45,2.41l-4.9,13.08c-1.35,3.59-3.67,5.82-6.63,5.82-3.33,0-6.08-1.86-6.08-5.02,0-1.27.97-2.32,2.45-2.32,1.22,0,2.49.72,2.49,1.98,0,1.1-.63,1.65-1.22,1.86.25.76,1.27,1.18,2.07,1.18,1.82,0,3.12-2.11,3.12-4.18,0-1.31-.97-2.28-2.24-2.49-1.06-.17-1.48-.93-1.98-2.49,0,0-1.06-3.21-2.19-6.58-.46-1.35-.93-2.7-2.11-3.29l-1.56-.8v-2.11h8.36l4.05,12.28,2.74-7.85c.08-.21.08-.42.08-.59,0-.51-.25-.89-.76-.89h-1.39v-2.95h8.44v2.95h-.3Z"/>
  <path class="cls-1" d="m216.9,15.83c-3.66-3.16.29-7.77-5.26-7.77h-4.78c-2.19,0-3.1.87-3.1,3.46v6.31h1.93c2.14,0,2.49-1.98,2.49-3.77,0,0-.22-1.01,0-1.22.72-.72,3.43-.79,4.07,0,2.22,2.75,2.73,11.9,0,14.15-.79.65-3.43.79-4.07,0-.19-.24,0-1.22,0-1.22,0-1.78-.36-3.77-2.49-3.77h-1.93v6.62c0,3,1.22,3.51,3.21,3.51,0,0,2.38-.47,2.95,0,.84.69.71,3.51,0,4.33-2.98,3.45-15.48,2.74-19.34,0-.88-.63-.76-3.56,0-4.33.1-.1,1.72-.04,1.72-.04,2.39,0,3.11-.22,3.94-4.03.27-1.24.5-18.45.05-19.52-1.01-2.43-1.82-2.06-2.49-2.17-1.37-.1-2.36,0-3.42-.25-.57-.14-.72-1.74-.25-2.17,5-4.64,26.47-5.97,30.54.35,1.61,2.5,2.02,9.24.49,11.43-.68.97-3.35.88-4.25.1Z"/>
  <path class="cls-1" d="m226.28,38.56c-5.78,0-10.44-3.73-10.44-9.47s4.67-9.47,10.44-9.47,10.49,3.69,10.49,9.47-4.71,9.47-10.49,9.47Zm-.27-15.78c-2.8,0-3.42,2.49-3.42,4.84,0,2.58.45,7.73,4,7.73,2.8,0,3.42-2.49,3.42-4.84,0-2.58-.49-7.73-4-7.73Z"/>
  <path class="cls-1" d="m247.7,38.56c-5.78,0-10.44-3.73-10.44-9.47s4.67-9.47,10.44-9.47,10.49,3.69,10.49,9.47-4.71,9.47-10.49,9.47Zm-.27-15.78c-2.8,0-3.42,2.49-3.42,4.84,0,2.58.45,7.73,4,7.73,2.8,0,3.42-2.49,3.42-4.84,0-2.58-.49-7.73-4-7.73Z"/>
  <path class="cls-1" d="m278.23,38.56c-1.82,0-3.24-.93-4.09-2.09-.18-.27-.49-.44-.84-.44s-.62.18-.84.4c-1.2,1.42-2.89,2.13-5.29,2.13-5.51,0-8.49-4.27-8.49-9.95,0-5.15,3.96-8.98,8.89-8.98,2.09,0,4.13.62,5.38,2.18v-6.62c0-1.51-.31-2.49-1.6-2.98l-2.27-.89v-1.78h10.75v22.49c0,1.02.18,2.67,1.42,2.67,1.82,0,2.67-2.31,3.11-3.82l.49.09c-.31,4.04-2.13,7.6-6.62,7.6Zm-5.11-10c0-2.09-1.07-6.18-4.18-6.18-2.71,0-3.07,3.33-3.07,5.33,0,2.44.53,7.15,3.82,7.15,2.67,0,3.42-2.98,3.42-4.76v-1.56Z"/>
  <path class="cls-1" d="m293.47,38.56c-3.11,0-8.71-.84-8.71-4.8,0-1.38,1.2-2.4,2.58-2.4,1.6,0,2.84.89,2.84,2.62,0,.53-.31,1.24-.76,1.56.76.4,2.13.58,3.11.58,1.2,0,3.78-.31,3.78-1.87,0-1.82-2.76-2.36-5.24-3.29-2.67-.98-5.78-2.4-5.78-6.13,0-4.09,5.2-5.2,8.44-5.2,2.93,0,7.96,1.2,7.96,4.84,0,1.42-.93,2.27-2.31,2.27-1.51,0-2.62-.84-2.62-2.44,0-.4.22-1.02.49-1.33-1.02-.53-2.04-.67-3.16-.67s-2.93.18-2.93,1.6,2.27,2,4.44,2.76c2.93,1.07,6.71,2.36,6.71,6.35s-5.47,5.56-8.84,5.56Z"/>
</svg>