<svg id="レイヤー_1" data-name="レイヤー 1" xmlns="http://www.w3.org/2000/svg" viewBox="0 0 316.82 92.32"><defs><style>.cls-1{font-size:60px;font-family:HGGyoshotai;letter-spacing:-0.12em;}.cls-2{opacity:0.11;}</style></defs><text class="cls-1" transform="translate(16.61 51.56)">海老師神社</text><path class="cls-2" d="M8.27,77.52a72.46,72.46,0,0,0,12.86,5.21l7,1.73a110.25,110.25,0,0,0,22.13,2.07,160.28,160.28,0,0,0,22.42-1.65c12.68-1.65,25.14-4.61,37.52-7.71,11.71-2.93,23.36-5.91,35.19-8.31a479.8,479.8,0,0,1,54.16-7.79,491.76,491.76,0,0,1,54.29-1.64q13.54.18,27.05,1.33,18,1.44,35.81,4.18a2.18,2.18,0,0,0-.77-1.23c-1.2-1.31-2.42-2.61-3.67-3.87s-2.49-2.54-3.78-3.77a2.18,2.18,0,0,0-1.2-.81q-18.17-2.44-36.45-3.61l-18.29-.83a523.06,523.06,0,0,0-54.86,1.32C179.52,53.42,161.42,56,143.45,59c-14.5,2.45-28.75,5.89-43.09,9.08-10.19,2.26-20.42,4.2-30.74,5.74a132,132,0,0,1-22.47,1.39A111.37,111.37,0,0,1,26.8,73,61.46,61.46,0,0,1,17,70.42,75.87,75.87,0,0,1,5.89,64.91a2,2,0,0,0,0,1.37c.25,1.68.54,3.34.86,5s.64,3.32,1,5A2,2,0,0,0,8.27,77.52Z"/><path class="cls-2" d="M6.63,75a72.4,72.4,0,0,0,12.78,5.2l7,1.73A110.06,110.06,0,0,0,48.56,84,160,160,0,0,0,71,82.36c12.68-1.65,25.16-4.63,37.54-7.73,11.7-2.94,23.35-5.92,35.17-8.31a477.38,477.38,0,0,1,54.15-7.8,489.4,489.4,0,0,1,54.29-1.65q13.56.16,27.06,1.33,18,1.44,35.83,4.17a1.78,1.78,0,0,0-.63-1.13c-1-1.2-2.07-2.39-3.15-3.54s-2.15-2.32-3.26-3.44a1.7,1.7,0,0,0-1.07-.72Q288.79,51,270.56,49.75l-18.25-.93a516.08,516.08,0,0,0-54.78,1.11,532.41,532.41,0,0,0-54.28,6.87c-14.58,2.5-28.86,6.06-43.25,9.43-17.69,4.14-35.7,8-54,7.86A111.2,111.2,0,0,1,25.21,72a63.11,63.11,0,0,1-10-2.57A70.59,70.59,0,0,1,3.79,63.93a1.59,1.59,0,0,0,0,1.23c.31,1.48.66,2.94,1,4.4S5.6,72.47,6,73.91A1.6,1.6,0,0,0,6.63,75Z"/><path class="cls-2" d="M5.31,78.74a54.78,54.78,0,0,0,9.58,4,55.29,55.29,0,0,0,10.36,2.89,116.6,116.6,0,0,0,18.36,2c16,.48,32.1-1.94,47.73-5.42,8.85-2,17.63-4.22,26.42-6.44,11.15-2.81,22.35-5.33,33.66-7.47q13.47-2.55,27.09-4.07,13.53-1.86,27.15-2.69l18.12-.88q18.09-.55,36.16.23l-.37,0L278,62l-.38,0,18.33,1.79-.37,0,18.24,2.45a2,2,0,0,0-.92-1c-1.34-1-2.71-2-4.09-3S306,60.2,304.6,59.28a1.94,1.94,0,0,0-1.27-.54c-13.16-1.52-22.89-2.77-36.16-3.52-18.17-1-36.36-1.3-54.54-.52a539.94,539.94,0,0,0-54.45,5.14c-17.26,2.49-34.3,5.9-51.32,9.68-12,2.67-24.07,5.2-36.27,7L59.78,77.94q-7.05.5-14.11.32A127.53,127.53,0,0,1,24.77,76a85.85,85.85,0,0,1-13.26-3.72A88.82,88.82,0,0,1,0,66.38,2.14,2.14,0,0,0,.3,67.79q1,2.47,2,4.92t2.16,4.85A2.19,2.19,0,0,0,5.31,78.74Z"/><path class="cls-2" d="M6.7,83.38A71.66,71.66,0,0,0,19.78,88.6l7.06,1.7a111.5,111.5,0,0,0,22.18,2,162.45,162.45,0,0,0,22.47-1.68C84.16,89,96.6,86,109,82.93c11.59-2.91,23.12-5.85,34.83-8.23A478.44,478.44,0,0,1,198,66.89a489.59,489.59,0,0,1,54.3-1.66q13.55.17,27.05,1.33,18,1.43,35.8,4.16c1.57.21-3.61-2.09-2.82-1.75-1.93-.83-3.88-1.64-5.83-2.42a18.68,18.68,0,0,0-3.1-1.09q-17.93-2.26-36-3.29l-18.06-.72A531.86,531.86,0,0,0,195.1,63c-18.18,1.34-36.25,3.94-54.21,7-14.9,2.53-29.63,6-44.47,8.83q-15.76,3-31.71,4.72a62.94,62.94,0,0,1-12.5.59,101.34,101.34,0,0,1-10.59-.65,117.79,117.79,0,0,1-20.48-3.78,64.7,64.7,0,0,1-9.64-3.26A116,116,0,0,1,.05,70.27a2.47,2.47,0,0,0,.43,1.5Q1.71,74.41,3,77c.87,1.74,1.76,3.45,2.7,5.15A2.43,2.43,0,0,0,6.7,83.38Z"/><path class="cls-2" d="M8.41,75.18A67.15,67.15,0,0,0,21.2,80.42l7.05,1.71a109.5,109.5,0,0,0,22.13,2A158.7,158.7,0,0,0,72.8,82.49c12.69-1.66,25.15-4.64,37.54-7.75,11.7-2.94,23.34-5.93,35.16-8.33a479.62,479.62,0,0,1,54.15-7.79A489.33,489.33,0,0,1,253.94,57q13.55.18,27.06,1.34,18,1.44,35.82,4.18a1.62,1.62,0,0,0-.51-1.13c-.89-1.23-1.8-2.44-2.75-3.62s-1.88-2.37-2.87-3.52a1.62,1.62,0,0,0-1-.76q-18.14-2.58-36.41-3.87l-18.28-1a512.33,512.33,0,0,0-54.86,1,526.42,526.42,0,0,0-54.26,6.85c-14.54,2.5-28.77,6.09-43.1,9.54C85.2,70.3,67.28,74.3,49.08,74.42a110.88,110.88,0,0,1-20.81-1.73,63.28,63.28,0,0,1-10-2.42A62,62,0,0,1,6.84,64.91,1.36,1.36,0,0,0,6.71,66c.14,1.36.32,2.72.54,4.07s.43,2.71.7,4.05A1.35,1.35,0,0,0,8.41,75.18Z"/><path class="cls-2" d="M6.31,73.86A113.42,113.42,0,0,0,19,78.73l7.07,1.71a110.07,110.07,0,0,0,22.19,2,159.6,159.6,0,0,0,22.48-1.73C83.45,79,96,76,108.35,72.89c11.7-3,23.34-6,35.16-8.38a475.14,475.14,0,0,1,54.15-7.8A486.9,486.9,0,0,1,252,55.08q13.55.18,27.05,1.36,18,1.44,35.82,4.2a1.17,1.17,0,0,0-.39-.94c-.73-1-1.49-2-2.28-2.9-.58-.7-2.12-3.21-3.26-3.36q-18-2.65-36.23-4l-18.2-1a500.79,500.79,0,0,0-109,7.72c-14.66,2.56-29,6.25-43.4,9.81C84.2,70.37,66,74.51,47.43,74.71A112.13,112.13,0,0,1,26.1,73a68.29,68.29,0,0,1-10.28-2.44A73.34,73.34,0,0,1,4.11,65.27a1,1,0,0,0-.06,1c.23,1.15.49,2.29.79,3.42C5,70.29,5.42,73.48,6.31,73.86Z"/><path class="cls-2" d="M6,73.05a104.35,104.35,0,0,0,12.81,5.08c7.06,2.18,14.54,3,21.88,3.46a141.63,141.63,0,0,0,22.65-.73,256.43,256.43,0,0,0,34.54-6.32c10.56-2.53,21-5.39,31.6-8a438.91,438.91,0,0,1,50.25-9,480.83,480.83,0,0,1,54.3-3.62q13.55-.3,27.1.4A493,493,0,0,1,315,59.74c.25,0-1.82-3-1.76-2.93-.47-.62-1.43-2.34-2.36-2.47-12.07-1.62-24-3.14-36.1-4.17a498.77,498.77,0,0,0-54.54-1.32A469.5,469.5,0,0,0,114.5,64C95.34,69,76,74.22,56.19,75.74a126.47,126.47,0,0,1-21.93-.12,74.77,74.77,0,0,1-10.73-1.55A58.57,58.57,0,0,1,4.42,66.89c-.26-.14.47,3.29.44,3.17C5,70.7,5.25,72.69,6,73.05Z"/><path class="cls-2" d="M6.93,78.41a73.29,73.29,0,0,0,12.91,5.22l7,1.72A110,110,0,0,0,49,87.42a161.52,161.52,0,0,0,22.4-1.64c12.66-1.65,25.11-4.61,37.49-7.7,11.7-2.93,23.35-5.91,35.18-8.3A477.7,477.7,0,0,1,198.21,62a489.58,489.58,0,0,1,54.3-1.65q13.55.18,27.06,1.34,18,1.43,35.82,4.17a2.46,2.46,0,0,0-1-1.22q-2.17-1.93-4.43-3.79t-4.52-3.66a2.5,2.5,0,0,0-1.38-.76Q286,54.05,267.71,53l-18.25-.77a532.22,532.22,0,0,0-54.76,1.46c-18.19,1.32-36.29,3.89-54.27,6.92-14.54,2.44-28.86,5.83-43.29,8.85q-15.35,3.22-30.87,5.34a121.74,121.74,0,0,1-22.5.88A113.24,113.24,0,0,1,23.52,72.9a61.54,61.54,0,0,1-9.67-2.83,86.55,86.55,0,0,1-11.14-5.8,2.51,2.51,0,0,0,.15,1.57q.75,2.82,1.6,5.61C5,73.32,5.59,75.17,6.2,77A2.48,2.48,0,0,0,6.93,78.41Z"/><path class="cls-2" d="M5.06,74.6A58.28,58.28,0,0,0,17.92,80L25,81.71a110.83,110.83,0,0,0,22.19,2.06,159.67,159.67,0,0,0,22.48-1.69c12.7-1.68,25.2-4.67,37.61-7.8,11.7-3,23.35-6,35.18-8.36a475.31,475.31,0,0,1,54.16-7.8,484.4,484.4,0,0,1,54.28-1.63q13.55.18,27.05,1.34,18,1.45,35.81,4.2a1.22,1.22,0,0,0-.49-.92c-.84-.94-1.7-1.85-2.59-2.74s-2.37-3-3.62-3.13q-18-2.6-36.17-3.9l-18.17-1a507.8,507.8,0,0,0-54.62,1,513.43,513.43,0,0,0-54.28,6.87c-14.68,2.55-29.06,6.19-43.54,9.65-18,4.3-36.27,8.29-54.83,8.2a112.16,112.16,0,0,1-21.32-2,68.31,68.31,0,0,1-10.25-2.57A46.35,46.35,0,0,1,2,65.55a1.23,1.23,0,0,0,0,1c.35,1.21.73,2.41,1.15,3.6C3.44,71,4,74.09,5.06,74.6Z"/><path class="cls-2" d="M7.5,72.25q3.08,1.71,6.22,3.24A56.41,56.41,0,0,0,24,78.57a104.7,104.7,0,0,0,22.1,2.63c19.86.37,39.53-3.73,58.7-8.51,10.5-2.62,20.92-5.56,31.47-8A473.44,473.44,0,0,1,244.61,53.26q18.06.15,36.08,1.64t35.81,4.28c.3,0-1.54-3.1-1.47-3-.38-.57-1.24-2.46-2.12-2.58q-18-2.79-36.14-4.26L258.6,48.2a467.49,467.49,0,0,0-54.63.61,476.55,476.55,0,0,0-54.28,6.8c-13,2.39-25.55,5.52-38.31,8.88C101.05,67.2,90.73,70,80.23,72a194.26,194.26,0,0,1-25.51,3.58,132.48,132.48,0,0,1-18.26-.19A74.75,74.75,0,0,1,25.73,74,49.59,49.59,0,0,1,6.5,66.41c-.29-.17.15,3.11.13,3C6.73,70,6.79,71.88,7.5,72.25Z"/><path class="cls-2" d="M6.31,81.36a109,109,0,0,0,13,5.2,86.67,86.67,0,0,0,18,3.21A145.54,145.54,0,0,0,70.9,88.62c14.45-2.08,28.59-5.49,42.72-9.05,9.94-2.5,19.87-4.95,29.92-7q8.94-2,18-3.29,13.49-2.39,27.12-3.73l-.4,0q18.06-1.89,36.22-2.45,13.58-.49,27.14,0,13.55.17,27.06,1.32,18,1.42,35.83,4.16c.49.15.55,0,.17-.31a22.56,22.56,0,0,0-2.94-1.88c-1.93-1.13-3.88-2.24-5.83-3.32a21.69,21.69,0,0,0-3.12-1.57q-18-2.3-36.14-3.33t-36.3-.83c-12.26.21-24.51.71-36.74,1.69-12.51,1-23.8,2.32-36.23,4.12-17.27,2.5-34.34,5.9-51.42,9.47-12,2.52-24.11,4.84-36.33,6.37L58.92,80.29q-7,.28-14-.09A128,128,0,0,1,24.4,77.37a85,85,0,0,1-12.95-4A99.81,99.81,0,0,1,.11,67.28a2.77,2.77,0,0,0,.38,1.6q1.14,2.82,2.38,5.59T5.39,80A2.78,2.78,0,0,0,6.31,81.36Z"/><path class="cls-2" d="M6.14,76.43A71,71,0,0,0,19,81.68l7,1.73A110,110,0,0,0,48.1,85.5c20.23.24,40.41-4.45,59.9-9.32,11.7-2.93,23.35-5.9,35.17-8.3a480.3,480.3,0,0,1,54.17-7.79,489.51,489.51,0,0,1,54.3-1.66q13.55.18,27.05,1.33,18,1.43,35.83,4.16a2.07,2.07,0,0,0-.82-1.16q-1.86-1.84-3.79-3.62T306,55.63a2.09,2.09,0,0,0-1.22-.72q-18.1-2.46-36.33-3.63l-18.24-.85a520.88,520.88,0,0,0-54.75,1.28c-18.2,1.27-36.3,3.83-54.28,6.89-14.57,2.48-28.89,6-43.31,9.17-10.29,2.28-20.61,4.2-31,5.74A126.82,126.82,0,0,1,44.06,74.8a111.89,111.89,0,0,1-20.63-2.46,63.84,63.84,0,0,1-9.87-2.72,79.94,79.94,0,0,1-11.32-5.7,2.07,2.07,0,0,0,.12,1.4q.69,2.49,1.47,5t1.61,4.92A2.07,2.07,0,0,0,6.14,76.43Z"/></svg>